<svg width="109" height="116" viewBox="0 0 109 116" fill="none" xmlns="http://www.w3.org/2000/svg">
<path d="M72.4315 24.8608L14.7746 72.7866C14.1805 72.8575 13.2975 72.698 12.1257 72.3081C10.6569 71.8119 9.26228 71.0765 7.94196 70.1019C4.17904 67.3374 1.90149 63.368 1.10929 58.1935C0.333603 53.2317 1.04328 47.9066 3.23831 42.2183C3.96449 40.3399 4.85571 38.3995 5.91197 36.397L7.84294 32.9149C9.41082 29.9201 10.7064 26.9607 11.7296 24.0368C13.4296 19.1459 13.8917 15.5308 13.116 13.1917L13.9082 13.298C14.5023 13.4221 14.9809 13.6524 15.344 13.9891C15.2945 13.4221 15.1542 12.7575 14.9232 11.9956C14.4446 10.4361 13.7596 9.12479 12.8684 8.06155L15.5421 7.66283C17.8031 7.68055 20.0972 8.37166 22.4243 9.73616L22.251 8.2742C22.1849 7.28183 22.2757 6.73249 22.5233 6.62617C22.9029 6.46668 23.4475 6.85654 24.1572 7.79574C24.1737 7.01602 24.3305 6.12999 24.6275 5.13762C25.2052 3.18834 26.1789 1.71752 27.5488 0.725159L28.9103 3.40985C30.1811 5.34141 31.7325 6.67933 33.5645 7.4236C35.1654 8.09699 38.7962 8.61089 44.4571 8.96531C49.9365 9.31972 53.7984 10.0463 56.043 11.145L58.4195 11.3576C60.3505 11.6234 62.1329 12.1107 63.7668 12.8196C69.0316 15.1055 71.9198 19.1193 72.4315 24.8608Z" fill="#68AE28"/>
<path d="M2.81744 63.4034C-0.912474 55.8544 -0.021256 47.1801 5.49109 37.3805C2.70191 45.3017 3.64264 51.6369 8.31328 56.386C10.3433 58.4416 12.9014 59.9479 15.9877 60.9048C19.0079 61.8263 22.2097 62.1276 25.593 61.8086L14.0567 72.9992C12.3733 72.8397 10.5001 71.9626 8.43706 70.3677C6.07698 68.507 4.20378 66.1856 2.81744 63.4034Z" fill="#56931F"/>
<path d="M95.0585 21.3521C96.5274 22.0432 97.8064 24.3912 98.8957 28.3961C99.8694 32.0289 100.199 34.5984 99.8859 36.1046C101.833 38.5324 103.731 43.2727 105.58 50.3255C107.676 58.229 108.031 63.9794 106.644 67.5767C106.199 68.7285 104.895 70.2968 102.733 72.2815C100.488 74.3726 98.2685 75.9852 96.0735 77.1193L97.1875 79.0597C98.0787 80.7609 98.8792 82.595 99.5888 84.562C101.85 90.9061 102.791 97.4804 102.411 104.285C102.296 106.447 100.629 108.219 97.4103 109.601C94.258 110.93 90.8995 111.374 87.3346 110.93C86.1298 110.753 84.5372 109.238 82.5567 106.385C80.2956 103.071 78.9505 99.6335 78.5214 96.0716C75.5012 97.9501 72.9513 99.2171 70.8718 99.8727L70.2282 101.042C69.667 101.999 69.0069 102.885 68.2477 103.7C65.8546 106.323 63.0242 107.785 59.7564 108.086C56.5051 108.388 53.9799 108.113 52.181 107.262C51.6199 106.996 51.1578 106.686 50.7947 106.332L50.4481 105.88L30.668 106.598L28.638 108.512C26.8226 109.805 24.7265 110.487 22.35 110.558C19.0987 110.665 16.5405 110.346 14.6756 109.601C12.332 108.645 10.6651 106.899 9.67487 104.365C8.23902 100.714 7.47983 96.5324 7.39731 91.8187C7.28179 85.6873 8.56085 80.6723 11.2345 76.7738C13.8091 73.017 17.1677 69.1893 21.3102 65.2907C22.4655 64.2097 25.6095 61.463 30.7423 57.0506C33.3664 54.8178 35.7017 52.6558 37.7482 50.5648C39.8277 48.4383 41.0903 46.9143 41.5359 45.9928C42.0145 42.4664 42.6417 38.8868 43.4174 35.2541C44.9853 27.9885 46.5036 24.1077 47.9725 23.6115C49.4413 23.1331 51.6034 23.6381 54.4586 25.1266C55.8779 25.8886 57.1487 26.6861 58.271 27.5189L59.9544 26.881C61.4398 26.4025 63.0654 25.995 64.8314 25.6583C70.4757 24.6127 76.4667 24.5507 82.8042 25.4722C83.7615 24.3735 85.874 23.3103 89.1418 22.2825C92.2941 21.2901 94.2663 20.98 95.0585 21.3521Z" fill="#7CBEB3"/>
<path d="M99.5393 31.9314L100.034 36.1046L97.4846 32.0377C97.7486 30.8504 97.8641 29.2467 97.8311 27.2265L97.6826 24.5684C98.4418 26.3228 99.0607 28.7771 99.5393 31.9314Z" fill="#68A198"/>
<path d="M42.848 36.6363C44.1848 30.0442 45.4969 26.2342 46.7842 25.2064C46.4706 29.0341 46.3633 32.8175 46.4624 36.5565C46.5284 38.7539 46.7429 42.1031 47.106 46.6042C47.3206 49.28 47.0648 51.6546 46.3386 53.7279C45.6949 55.5354 44.8532 56.767 43.8135 57.4227C42.7902 58.0607 41.9485 57.9189 41.2883 56.9974C40.5787 55.9873 40.3394 54.2507 40.5704 51.7875C41.0325 46.8789 41.7917 41.8284 42.848 36.6363Z" fill="#68A198"/>
<path d="M87.5326 104.205C88.8034 106.757 90.3218 108.352 92.0877 108.99L91.147 111.01C88.6549 111.542 86.4516 110.842 84.5371 108.91C82.2431 106.553 80.2131 102.274 78.4471 96.0716C75.5919 97.9323 72.4232 99.3234 68.9408 100.245C65.508 101.166 61.382 101.725 56.5628 101.919C55.8036 102.185 55.2507 102.752 54.9041 103.621C54.5576 104.454 54.5493 105.207 54.8794 105.88L53.493 107.634L50.5223 105.694C50.6048 105.092 51.067 103.293 51.9087 100.298C52.7339 97.4273 53.2537 94.9375 53.4683 92.8287C54.0954 86.5202 52.4615 80.8141 48.5666 75.7105C52.0324 79.4496 58.1059 81.7976 66.787 82.7545C76.0623 83.7646 83.943 82.8608 90.4291 80.0432C88.3496 81.4786 86.8642 83.7114 85.973 86.7417C85.1808 89.4707 84.9415 92.4921 85.2551 95.8058C85.5686 98.9956 86.3278 101.795 87.5326 104.205Z" fill="#68A198"/>
<path d="M7.14972 88.9479C7.85939 95.1679 11.0282 99.1639 16.656 100.936C18.8181 101.609 21.0956 101.857 23.4887 101.68C25.6672 101.521 27.4579 101.06 28.8608 100.298L30.668 106.837C29.3807 108.184 27.6477 109.238 25.4692 110C21.1121 111.524 16.7303 110.86 12.3237 108.007C10.1947 106.624 8.66809 103.116 7.74386 97.4804C7.44679 95.5843 7.24874 93.6616 7.14972 91.7123C7.0672 90.082 7.0672 89.1606 7.14972 88.9479Z" fill="#68A198"/>
<path d="M60.1525 45.6207C60.7961 45.4966 61.481 45.6118 62.2072 45.9662C59.7151 48.0219 58.4113 51.1761 58.2958 55.4291C58.1802 59.31 59.0054 62.9516 60.7714 66.354C57.3055 65.9464 54.8629 65.0958 53.4436 63.8022C53.031 63.4123 52.8577 62.3225 52.9237 60.5327C52.9897 58.672 53.295 56.7227 53.8397 54.6849C55.259 49.2623 57.3633 46.2409 60.1525 45.6207Z" fill="white"/>
<path d="M68.718 55.7481C69.4937 57.9809 69.9723 59.9922 70.1539 61.782C70.3519 63.6958 70.1539 64.9717 69.5597 65.6097C69.1636 66.035 68.0991 66.3274 66.3662 66.4868C64.6003 66.6286 62.7353 66.5843 60.7713 66.3539C59.0054 62.9516 58.1802 59.3099 58.2957 55.4291C58.4113 51.1761 59.7151 48.0218 62.2072 45.9662C64.6663 47.1889 66.8366 50.4496 68.718 55.7481Z" fill="#D60040"/>
<path d="M97.7074 44.2916C99.7704 46.0991 101 48.8016 101.396 52.3989C101.644 54.6494 101.545 57.8126 101.099 61.8883C100.373 62.1896 99.6714 62.3934 98.9947 62.4997C98.3015 62.6237 97.7817 62.6237 97.4351 62.4997C96.4613 62.163 95.9745 59.4872 95.9745 54.4722C95.958 49.3509 96.5356 45.9574 97.7074 44.2916Z" fill="#D60040"/>
<path d="M97.7074 44.2916C98.0045 43.8486 98.3181 43.5917 98.6481 43.5208C100.249 43.1486 101.8 45.2485 103.302 49.8205C104.771 54.357 105.06 57.5999 104.169 59.5492C103.756 60.4707 102.733 61.2504 101.099 61.8883C101.545 57.8126 101.644 54.6494 101.396 52.3989C101 48.8016 99.7704 46.0991 97.7074 44.2916Z" fill="white"/>
<path d="M83.1756 41.5803C82.697 41.7753 81.4509 41.2348 79.4374 39.9589C77.3249 38.6475 76.3099 37.5754 76.3924 36.7426C76.5079 35.6439 78.2161 34.1288 81.5169 32.1972C84.8672 30.2479 87.0953 29.5302 88.201 30.0441C88.9107 30.3631 88.5394 32.2415 87.087 35.6793C85.6182 39.1349 84.3144 41.1019 83.1756 41.5803Z" fill="#006359"/>
<path d="M72.1591 43.8663C72.1096 43.636 72.3572 43.2018 72.9018 42.5639C73.463 41.9082 73.9663 41.5183 74.4119 41.3943L74.9566 42.2183C75.4187 43.0512 75.8808 44.2207 76.3429 45.727L76.0211 46.551C75.7075 47.1535 75.3197 47.57 74.8576 47.8003L73.6693 46.5776C72.8441 45.603 72.3407 44.6992 72.1591 43.8663Z" fill="#006359"/>
<path d="M91.2955 49.661C91.8072 52.7976 91.8484 54.5519 91.4193 54.9241C91.0397 55.2608 89.8845 55.1279 87.9535 54.5253C86.006 53.9228 84.9002 53.3381 84.6362 52.771C84.7187 51.4597 85.3458 49.8205 86.5176 47.8535C87.7224 45.8865 88.6962 44.903 89.4388 44.903C90.165 44.903 90.7839 46.489 91.2955 49.661Z" fill="#006359"/>
<path d="M92.7809 95.8856C92.7149 94.8755 93.2925 93.4313 94.5138 91.5529C95.7021 89.7099 96.5603 88.8239 97.0884 88.8947C97.8806 88.9833 98.4253 90.7643 98.7223 94.2376C99.0029 97.7285 98.7471 99.6158 97.9549 99.8993C97.0802 100.218 96.0322 100.041 94.8109 99.3677C93.4081 98.5703 92.7314 97.4096 92.7809 95.8856Z" fill="#006359"/>
<path d="M14.3043 80.947L18.389 81.1331C20.221 81.5229 21.2772 81.9571 21.5578 82.4355C22.0199 83.233 21.7146 84.9164 20.6418 87.4859C19.5856 90.0377 18.6943 91.3491 17.9682 91.4199C17.341 91.4731 16.0702 90.7997 14.1557 89.3998C12.2248 87.9998 11.2675 87.0252 11.284 86.4759C11.3005 85.767 11.6224 84.7569 12.2495 83.4456C12.9427 81.9748 13.6276 81.1419 14.3043 80.947Z" fill="#006359"/>
<path d="M37.8472 58.1669C38.2763 58.9644 37.5832 61.1795 35.7677 64.8122C33.9523 68.445 32.5577 70.3765 31.584 70.6069C30.6927 70.8373 29.2404 70.4208 27.2269 69.3576C25.3289 68.383 24.0664 67.4881 23.4392 66.6729C23.2412 66.4071 23.3732 65.6274 23.8353 64.3338L24.578 62.4465L27.8953 59.6289C30.1399 57.7328 31.3942 56.7493 31.6582 56.6784L34.7527 56.9708C36.5682 57.3075 37.5997 57.7062 37.8472 58.1669Z" fill="#006359"/>
<path d="M62.9747 48.6509C63.5028 48.6509 63.9649 49.2091 64.361 50.3255C64.7571 51.5128 64.9469 52.9925 64.9304 54.7646C64.8974 56.4481 64.6828 57.7771 64.2867 58.7518C63.9236 59.6378 63.478 60.0808 62.9499 60.0808C62.4548 60.0808 62.0257 59.6024 61.6626 58.6454C61.2665 57.6354 61.0519 56.3595 61.0189 54.8178C60.9529 52.9571 61.1345 51.442 61.5636 50.2724C61.9432 49.1914 62.4135 48.6509 62.9747 48.6509Z" fill="white"/>
<path d="M96.5439 49.2357L97.039 46.8434C97.237 46.5599 97.4268 46.427 97.6084 46.4447C97.9054 46.4624 98.186 46.808 98.4501 47.4813C98.8297 48.3851 99.036 49.661 99.069 51.309C99.0855 52.8684 98.9534 54.0823 98.6729 54.9506C98.4088 55.7303 98.0787 56.1202 97.6826 56.1202C97.4351 56.1202 97.1875 55.9253 96.9399 55.5354C96.6759 55.1101 96.4943 54.5519 96.3953 53.8608C96.1973 52.6381 96.2468 51.0964 96.5439 49.2357Z" fill="white"/>
<path d="M85.9977 26.6949C81.4756 25.7557 76.8958 25.3925 72.2581 25.6051C67.2739 25.8178 62.694 26.6861 58.5185 28.2101C58.37 28.2632 58.1637 28.086 57.8996 27.6784C57.6191 27.2709 57.553 27.0316 57.7016 26.9607C62.4382 25.2418 67.571 24.3204 73.0998 24.1963C77.952 24.0723 82.3834 24.5596 86.3938 25.6583C88.4403 26.2253 89.4141 26.6418 89.315 26.9076L85.9977 26.6949Z" fill="#0D131A"/>
<path d="M99.366 34.1111C102.716 39.321 105.159 45.3637 106.694 52.2394C108.031 58.229 108.361 62.863 107.684 66.1413C106.941 69.7741 103.244 73.4954 96.5934 77.3054C89.9917 81.0976 83.6129 83.1975 77.4569 83.6051C70.8718 84.0304 64.6746 83.4456 58.8651 81.8507C53.0557 80.2559 49.3093 78.1028 47.6259 75.3915C47.0813 74.5055 46.908 73.965 47.106 73.7701C47.3206 73.5752 47.8074 73.9207 48.5666 74.8068C50.7947 77.4294 54.7639 79.4319 60.4743 80.8141C65.9041 82.1254 71.5732 82.5862 77.4817 82.1963C83.6542 81.7887 89.8845 79.7065 96.1725 75.9497C102.213 72.3347 105.563 68.9146 106.223 65.6894C106.917 62.3402 106.628 57.8214 105.357 52.1331C103.938 45.7713 101.668 40.0475 98.5491 34.9617C97.2618 32.8529 96.7584 31.6833 97.039 31.4529C97.303 31.2226 98.0787 32.1086 99.366 34.1111Z" fill="#0D131A"/>
<path d="M42.0063 46.2852C40.917 48.4826 38.7137 51.0964 35.3964 54.1266C33.4159 55.9164 30.0821 58.7517 25.395 62.6326C21.1204 66.2831 17.8196 69.4994 15.4926 72.2815C12.2908 76.1092 10.1618 79.8749 9.1055 83.5785C7.83469 88.0264 7.76867 93.0237 8.90745 98.5703C9.96371 103.798 11.4656 107.023 13.4131 108.246C15.5091 109.557 18.3313 110.133 21.8796 109.974C25.5435 109.814 28.0769 108.893 29.4797 107.209C31.6418 104.604 32.4835 100.387 32.0048 94.5565C31.5097 88.6023 29.8263 83.8532 26.9546 80.309C25.8323 78.9091 25.3537 78.0585 25.5188 77.7572C25.6838 77.456 26.3852 78.0142 27.623 79.4318C31.2374 83.5962 33.2509 88.6909 33.6635 94.716C34.0431 100.44 32.9291 104.87 30.3214 108.007C28.7535 109.903 25.9314 110.966 21.8549 111.196C17.9104 111.427 14.7829 110.815 12.4723 109.362C10.1287 107.891 8.41233 104.418 7.32306 98.9424C6.21729 93.3072 6.32457 88.0973 7.64489 83.3127C8.65164 79.6977 10.6404 76.0738 13.6111 72.441C15.7731 69.7829 18.9006 66.6729 22.9936 63.111L33.1436 54.2861C36.8075 50.9015 39.5389 47.7915 41.3379 44.9561C41.4204 44.8321 41.5689 44.9827 41.7835 45.408C42.0145 45.851 42.0888 46.1434 42.0063 46.2852Z" fill="#0D131A"/>
<path d="M48.0715 22.8141C49.0947 22.4597 50.8194 22.8141 53.2455 23.8773C55.6881 24.9583 57.6933 26.2785 59.2612 27.8379C60.499 29.0784 60.9776 29.7783 60.6971 29.9378C60.433 30.115 59.6738 29.6809 58.4195 28.6354C56.8021 27.324 54.9289 26.2165 52.7999 25.3127C50.7204 24.409 49.3258 24.09 48.6161 24.3558C47.4608 24.7634 46.124 27.9088 44.6056 33.7921C43.0047 40.0121 41.965 46.5333 41.4864 53.3558C41.3543 55.3228 41.1233 56.2266 40.7932 56.0671C40.4466 55.9076 40.3063 54.9772 40.3724 53.276C40.5869 47.375 41.4121 41.1994 42.848 34.749C44.4819 27.4481 46.223 23.4698 48.0715 22.8141Z" fill="#0D131A"/>
<path d="M82.0121 25.1001C83.4479 23.9305 85.6512 22.8141 88.6219 21.7508C91.9722 20.5458 94.2993 20.2623 95.6031 20.9002C96.8904 21.5205 98.0622 23.6027 99.1185 27.1468C100.092 30.4429 100.637 33.7566 100.752 37.0881C100.752 37.2476 100.546 37.0793 100.133 36.5831C99.7044 36.0869 99.4898 35.7502 99.4898 35.573C99.3908 32.8795 98.8132 30.0441 97.7569 27.0671C96.7502 24.2317 95.8177 22.6014 94.9595 22.1761C94.1508 21.7863 92.3023 22.0344 89.4141 22.9204C86.4929 23.8064 84.4134 24.7545 83.1756 25.7646C83.0601 25.8709 82.8042 25.8177 82.4082 25.6051C82.0286 25.3747 81.8965 25.2064 82.0121 25.1001Z" fill="#0D131A"/>
<path d="M82.928 40.8361C83.7367 40.8183 84.8672 39.1615 86.3196 35.8654C87.7554 32.6225 88.2918 30.9036 87.9287 30.7087C87.12 30.2656 85.1148 30.9125 81.913 32.6491C78.6947 34.3857 77.0773 35.7236 77.0608 36.6628C77.0443 37.2476 77.754 38.0716 79.1898 39.1349C80.6587 40.1981 81.9048 40.7652 82.928 40.8361ZM80.9475 31.9314C84.4629 29.8935 86.9715 29.0252 88.4734 29.3264C88.985 29.4328 89.1335 30.1593 88.919 31.5061C88.7209 32.7465 88.2753 34.1997 87.5821 35.8654C85.8492 40.0121 84.2978 42.0499 82.928 41.9791C81.8387 41.9082 80.3864 41.2348 78.5709 39.9589C76.673 38.6298 75.724 37.5046 75.724 36.5831C75.724 35.5021 77.4652 33.9516 80.9475 31.9314Z" fill="#0D131A"/>
<path d="M75.8478 45.8865C75.8973 45.7447 75.7157 45.0891 75.3031 43.9195C74.8905 42.7322 74.5934 42.1297 74.4119 42.112C74.2634 42.0943 73.9333 42.3335 73.4217 42.8297C72.91 43.3258 72.6542 43.698 72.6542 43.9461C72.6707 44.1764 73.0173 44.7789 73.694 45.7536C74.3706 46.6928 74.7667 47.1624 74.8823 47.1624C74.9813 47.1624 75.1546 46.9852 75.4021 46.6308L75.8478 45.8865ZM75.8973 43.0955C76.4089 44.4068 76.673 45.3017 76.6895 45.7802C76.706 46.17 76.4419 46.7017 75.8973 47.375C75.3361 48.0661 74.9153 48.3408 74.6347 48.1991C74.3046 48.0396 73.7352 47.3839 72.9265 46.2321C72.0518 45.0093 71.6475 44.1676 71.7135 43.7068C71.7795 43.2284 72.1674 42.6259 72.877 41.8993C73.5867 41.2082 74.1231 40.8715 74.4862 40.8892C74.8658 40.9247 75.3361 41.6601 75.8973 43.0955Z" fill="#0D131A"/>
<path d="M89.2656 45.6738C88.7539 45.6384 87.9122 46.6751 86.7404 48.7838C85.6017 50.8749 85.0983 52.1242 85.2303 52.5318C85.3624 52.9039 86.2948 53.3558 88.0278 53.8874C89.7772 54.419 90.7757 54.5608 91.0232 54.3127C91.4028 53.9228 91.3286 52.39 90.8004 49.7142C90.2723 47.056 89.7607 45.7093 89.2656 45.6738ZM85.8987 47.9066C87.3346 45.2485 88.4651 43.9638 89.2903 44.0524C90.3301 44.1587 91.1635 46.0017 91.7907 49.5813C92.4013 53.1431 92.3518 55.1101 91.6421 55.4823C91.0315 55.819 89.6864 55.6152 87.6069 54.8709C85.5604 54.1443 84.4381 53.5241 84.2401 53.0102C83.9265 52.2482 84.4794 50.547 85.8987 47.9066Z" fill="#0D131A"/>
<path d="M54.4338 50.9635C56.3648 46.7637 58.4361 44.7966 60.6476 45.0625C63.7669 45.4523 66.4488 48.2788 68.6933 53.5418C69.634 55.7746 70.2529 57.9809 70.55 60.1605C70.8636 62.4288 70.7563 64.2363 70.2282 65.5831C69.9476 66.3274 68.8914 66.8235 67.0594 67.0716C65.376 67.2843 63.4203 67.2666 61.1922 67.0185C58.9477 66.7704 57.0332 66.3362 55.4488 65.716C53.6994 65.0603 52.7504 64.3072 52.6019 63.4566C51.8592 59.4163 52.4699 55.2519 54.4338 50.9635ZM66.0692 51.3356C64.3362 48.1813 62.4878 46.489 60.5238 46.2586C59.7481 46.17 58.9064 46.6307 57.9987 47.6408C56.6289 49.1648 55.5231 51.3622 54.6814 54.2329C53.7902 57.3518 53.5261 60.3377 53.8892 63.1908C54.0212 64.2895 56.4886 65.1223 61.2913 65.6894C66.0939 66.2742 68.7016 66.0527 69.1142 65.0249C69.5433 63.9085 69.469 61.9592 68.8914 59.177C68.2807 56.2708 67.34 53.657 66.0692 51.3356Z" fill="#0D131A"/>
<path d="M102.535 49.2091C101.297 45.9131 100.051 44.265 98.7966 44.265C97.6909 44.265 97.0142 47.0738 96.7666 52.6912C96.5191 58.2733 96.8326 61.339 97.7074 61.8883C98.285 62.2427 99.3743 62.0478 100.975 61.3035C102.576 60.5593 103.443 59.8593 103.575 59.2036C104.218 56.067 103.872 52.7355 102.535 49.2091ZM95.6031 52.2394C95.8837 46.108 96.9482 43.0423 98.7966 43.0423C100.398 43.0423 101.949 44.8764 103.451 48.5446C105.019 52.4077 105.456 56.0139 104.763 59.3631C104.515 60.4972 103.294 61.5073 101.099 62.3934C98.9699 63.2617 97.6166 63.43 97.039 62.8984C96.4943 62.4199 96.09 61.1086 95.8259 58.9644C95.5618 56.9088 95.4876 54.6671 95.6031 52.2394Z" fill="#0D131A"/>
<path d="M31.3859 56.1734L35.7182 56.4658C37.4016 56.7847 38.3671 57.2012 38.6147 57.7151C39.0603 58.6897 38.2516 61.1883 36.1886 65.2109C34.1256 69.269 32.5494 71.298 31.4602 71.298C30.4204 71.298 28.7205 70.7398 26.3604 69.6234C23.8683 68.4538 22.6223 67.4969 22.6223 66.7527C22.6223 66.3274 22.8038 65.6894 23.1669 64.8388L24.3552 62.3402C24.4377 62.1984 24.6605 62.1098 25.0236 62.0744C25.4032 62.0567 25.5517 62.1187 25.4692 62.2604C25.0236 63.1465 24.6688 64.0059 24.4047 64.8388C24.1736 65.5654 24.0581 66.0881 24.0581 66.4071C24.1241 66.8856 25.1886 67.621 27.2516 68.6133C29.2651 69.588 30.6597 70.0842 31.4354 70.1019C32.1616 69.8538 33.3499 68.0463 35.0003 64.6793C36.6507 61.3124 37.3604 59.2568 37.1293 58.5125C36.9973 58.2113 36.2876 57.9277 35.0003 57.6619L31.1631 57.3695C30.9981 57.3872 30.9568 57.1923 31.0393 56.7847C31.1218 56.3949 31.2374 56.1911 31.3859 56.1734Z" fill="#0D131A"/>
<path d="M14.5271 81.4254C14.0154 81.6912 13.4295 82.4267 12.7694 83.6317C12.1092 84.819 11.8039 85.643 11.8534 86.1037C11.9194 86.5822 12.7941 87.4593 14.4775 88.7352C16.161 90.0111 17.2502 90.6136 17.7453 90.5428C18.2405 90.4719 19.0079 89.2491 20.0477 86.8746C21.0874 84.5 21.4753 83.1621 21.2112 82.8608C20.9141 82.5418 19.8331 82.1697 17.9681 81.7444C16.0702 81.3191 14.9232 81.2128 14.5271 81.4254ZM11.7791 82.9406C12.5548 81.5583 13.2893 80.6723 13.9824 80.2824L18.2652 80.4951C20.6418 80.9735 22.0281 81.5495 22.4242 82.2229C22.7873 82.8431 22.3747 84.5797 21.1864 87.4328C19.9981 90.2681 19.0244 91.8364 18.2652 92.1376C17.6876 92.3857 16.326 91.7035 14.1805 90.0909C12.0019 88.4606 10.8549 87.1847 10.7394 86.2632C10.6569 85.4658 11.0034 84.3582 11.7791 82.9406Z" fill="#0D131A"/>
<path d="M93.3255 95.8324V95.859C93.3585 97.3298 94.0269 98.4019 95.3308 99.0753C96.5026 99.6778 97.2947 99.7753 97.7073 99.3677C98.1365 98.9424 98.285 97.3298 98.153 94.5299C98.0209 91.6769 97.6331 90.0909 96.9894 89.7719C96.6428 89.6124 95.9414 90.4098 94.8852 92.1642C93.8454 93.9186 93.3255 95.1413 93.3255 95.8324ZM94.0435 91.2604C95.3143 89.0808 96.2963 87.9998 96.9894 88.0175C98.1117 88.0353 98.8131 89.958 99.0937 93.7856C99.3743 97.5424 99.1432 99.7132 98.4005 100.298C97.7899 100.794 96.6758 100.706 95.0585 100.032C93.21 99.2525 92.261 97.95 92.2115 96.1248C92.195 95.0261 92.8057 93.4047 94.0435 91.2604Z" fill="#0D131A"/>
<path d="M104.911 64.892C104.895 65.5831 104.804 66.1502 104.639 66.5932L104.144 67.4703C103.335 68.4981 101.404 69.7918 98.351 71.3512C95.1987 72.9638 92.4673 74.0182 90.1567 74.5143C85.9482 75.4358 79.4869 75.5156 70.7728 74.7536C62.0586 74.0093 56.5545 72.8929 54.2605 71.4044C53.8809 71.1385 53.5343 70.7044 53.2207 70.1019C52.9402 69.588 52.7339 69.0209 52.6018 68.4007C52.3543 67.2843 52.3378 66.6552 52.5523 66.5134C52.7669 66.3717 53.1052 66.8856 53.5673 68.0551C53.8479 68.7462 54.145 69.2779 54.4585 69.65L55.4488 70.4474C57.2972 71.5284 62.2402 72.4853 70.2776 73.3182C78.9753 74.222 85.5274 74.1954 89.9339 73.2385C91.9144 72.7954 94.2663 71.936 96.9894 70.6601C99.5145 69.4728 101.404 68.3918 102.659 67.4172C103.121 67.045 103.459 66.6641 103.674 66.2742C103.905 65.8666 104.053 65.3704 104.119 64.7857C104.235 63.7224 104.4 63.2262 104.614 63.2971C104.829 63.3857 104.928 63.9173 104.911 64.892Z" fill="#0D131A"/>
<path d="M67.3812 43.0689C67.9588 43.6359 68.52 44.3271 69.0646 45.1422C69.6422 45.9928 70.0548 46.7637 70.3024 47.4548C70.6655 48.4471 70.682 49.0053 70.3519 49.1294C70.0053 49.2357 69.6175 48.8458 69.1884 47.9598C68.4787 46.4535 67.6122 45.089 66.589 43.8663C65.6318 42.679 65.2522 41.9879 65.4502 41.793C65.6648 41.5981 66.3084 42.0234 67.3812 43.0689Z" fill="#0D131A"/>
<path d="M95.2813 43.255C94.9677 44.2296 94.7697 45.2751 94.6871 46.3915C94.6211 47.3662 94.4148 47.8446 94.0682 47.8269C93.7217 47.8269 93.5731 47.3484 93.6226 46.3915C93.6721 45.222 93.9527 44.0701 94.4643 42.936C94.9264 41.9259 95.2648 41.4474 95.4793 41.5006C95.6774 41.5715 95.6114 42.1563 95.2813 43.255Z" fill="#0D131A"/>
<path d="M84.4134 71.112C84.0503 70.9171 83.7614 70.669 83.5469 70.3677C83.3323 70.0842 83.2581 69.8804 83.3241 69.7563L84.0915 69.7829C84.5701 69.8893 84.925 70.0576 85.156 70.288C85.4531 70.6069 85.5109 70.8816 85.3293 71.112C85.1478 71.3424 84.8425 71.3424 84.4134 71.112Z" fill="#0D131A"/>
<path d="M92.8552 69.7829C92.5086 70.2437 92.195 70.4031 91.9144 70.2614C91.6339 70.1196 91.6174 69.8272 91.8649 69.3842C92.0465 69.0652 92.3353 68.7817 92.7314 68.5336C93.0945 68.2855 93.3255 68.2058 93.4246 68.2944C93.4906 68.3653 93.4741 68.5513 93.375 68.8526L92.8552 69.7829Z" fill="#0D131A"/>
<path d="M63.0984 46.0991C63.247 46.1523 63.313 46.4093 63.2965 46.87C63.28 47.3307 63.2057 47.5168 63.0737 47.4282C62.232 46.8611 61.4398 47.2953 60.6971 48.7307C60.0039 50.042 59.5253 51.8584 59.2613 54.1798C58.9807 56.5721 59.0137 58.8049 59.3603 60.8782C59.7729 63.2351 60.5403 64.9186 61.6626 65.9287C61.7946 66.035 61.7121 66.1945 61.415 66.4071C61.118 66.602 60.9034 66.6463 60.7714 66.54C59.418 65.4591 58.4856 63.6693 57.9739 61.1706C57.5283 58.9201 57.4788 56.5101 57.8254 53.9406C58.172 51.4065 58.8074 49.3863 59.7316 47.8801C60.7384 46.2675 61.8606 45.6738 63.0984 46.0991Z" fill="#0D131A"/>
<path d="M97.2865 44.5043C97.8642 44.0258 98.5326 44.2296 99.2917 45.1156C100.051 45.984 100.703 47.2776 101.247 48.9965C102.601 53.3026 102.659 57.5379 101.421 61.7023C101.371 61.8618 101.181 61.9769 100.851 62.0478C100.521 62.101 100.373 62.0478 100.406 61.8883C101.413 58.5214 101.446 54.7026 100.505 50.4319C100.125 48.713 99.6548 47.3573 99.0937 46.365C98.5326 45.3549 98.0209 44.9827 97.5588 45.2486C97.4268 45.3372 97.3195 45.2574 97.237 45.0093C97.1545 44.779 97.171 44.6106 97.2865 44.5043Z" fill="#0D131A"/>
<path d="M95.4546 77.518C95.372 77.3762 95.5453 77.1636 95.9744 76.8801C96.387 76.5788 96.6264 76.4991 96.6924 76.6408C101.38 84.7747 103.467 94.2641 102.956 105.109C102.906 106.119 102.188 107.165 100.802 108.246C99.4816 109.274 97.8477 110.133 95.9002 110.824C91.18 112.49 87.6317 112.428 85.2551 110.638C83.6872 109.451 82.0615 107.183 80.3781 103.833C78.7607 100.626 77.9355 98.1893 77.9025 96.5235C77.9025 96.364 78.1336 96.1868 78.5957 95.9919L79.2641 95.9121C79.2971 97.5602 80.0646 99.8905 81.5664 102.903C83.1673 106.11 84.7765 108.326 86.3939 109.548C88.4569 111.09 91.5679 111.134 95.7269 109.681C97.4103 109.096 98.8296 108.37 99.9849 107.502C101.19 106.615 101.809 105.8 101.842 105.056C102.32 94.9198 100.191 85.7404 95.4546 77.518Z" fill="#0D131A"/>
<path d="M81.616 94.3704C77.3414 97.9678 72.2417 100.404 66.3167 101.68C60.8209 102.85 55.9109 102.788 51.5869 101.494C51.4383 101.441 51.4136 101.166 51.5126 100.67C51.5951 100.192 51.7106 99.9702 51.8592 100.006C56.1007 101.282 60.8456 101.361 66.0939 100.245C71.4247 99.1107 76.2604 96.9577 80.601 93.7857C82.2514 92.5806 83.1673 92.1022 83.3489 92.3503C83.5139 92.5806 82.9363 93.254 81.616 94.3704Z" fill="#0D131A"/>
<path d="M70.0549 99.7398C70.1374 99.598 70.517 99.474 71.1936 99.3677L72.0848 99.4474C70.7975 101.716 69.2049 103.692 67.3069 105.375C65.1284 107.307 62.9911 108.414 60.8951 108.698L53.4683 108.458C51.5208 107.945 50.3738 107.165 50.0272 106.119C49.9777 105.96 50.1015 105.694 50.3986 105.322C50.6791 104.932 50.8442 104.817 50.8937 104.976C51.2238 105.969 52.2388 106.713 53.9387 107.209C55.7871 107.758 58.0564 107.856 60.7466 107.501C62.3145 107.289 63.9731 106.447 65.7225 104.976C67.4555 103.523 68.8996 101.778 70.0549 99.7398Z" fill="#0D131A"/>
<path d="M12.4475 12.6867C12.5796 12.5804 12.9014 12.5804 13.413 12.6867C14.2052 12.8462 14.8984 13.2272 15.4925 13.8297C15.6246 13.936 15.6328 14.1043 15.5173 14.3347C15.4183 14.5474 15.3027 14.6005 15.1707 14.4942C14.8241 14.1752 14.4858 13.9626 14.1557 13.8562L13.6853 13.8297L13.7844 14.6803L13.9329 16.2751C13.9824 18.6851 13.248 21.8394 11.7296 25.738C10.5413 28.8391 9.0147 32.0466 7.14974 35.3604C1.27431 45.8333 -0.0212565 54.8709 3.26305 62.4731C4.50085 65.3439 6.27503 67.6919 8.5856 69.5171C10.6321 71.112 12.5961 71.9803 14.4775 72.1221C14.6261 72.1398 14.6013 72.3436 14.4033 72.7334C14.2217 73.141 14.0484 73.3359 13.8834 73.3182C11.6884 73.1587 9.49332 72.2284 7.29828 70.5272C4.85568 68.6133 2.99898 66.1324 1.72817 63.0845C-1.57264 55.181 -0.145037 45.7625 6.01097 34.8287C8.91568 29.6543 10.8879 25.4013 11.9277 22.0698C13.0334 18.5434 13.215 15.6815 12.4723 13.4841C12.3238 13.0765 12.3155 12.8107 12.4475 12.6867Z" fill="#0D131A"/>
<path d="M25.2712 11.7563C25.3867 11.8804 25.3867 12.0753 25.2712 12.3411C25.1557 12.6246 25.0401 12.7044 24.9246 12.5803C23.6868 11.1981 22.0777 10.0906 20.0972 9.25771C18.2322 8.49571 16.5571 8.15902 15.0717 8.24762C14.3785 8.30078 14.0072 8.39825 13.9577 8.54001C13.9082 8.66406 14.0732 9.04506 14.4528 9.683C16.2517 12.731 16.3013 17.232 14.6013 23.1862C13.6771 26.3759 12.233 30.3454 10.269 35.0946C7.36433 43.2993 7.13327 50.6179 9.57587 57.0506C10.5826 59.7087 11.9772 61.9592 13.7596 63.8022C15.41 65.5211 17.1925 66.6818 19.1069 67.2843C19.239 67.3197 19.14 67.4969 18.8099 67.8159C18.4798 68.1172 18.2405 68.2501 18.0919 68.2146C13.0252 66.6198 9.55111 62.5617 7.66965 56.0405C5.70567 49.2889 6.18429 42.0942 9.1055 34.4566L11.284 29.167C12.3238 26.5797 13.1077 24.3203 13.6359 22.3888C15.2533 16.5764 15.0635 12.2968 13.0665 9.5501C12.3898 8.6109 12.0762 8.00839 12.1257 7.74258C12.1753 7.44133 12.6704 7.22868 13.6111 7.10463C15.377 6.85654 17.3575 7.14894 19.5526 7.98181C21.8796 8.86785 23.7858 10.126 25.2712 11.7563Z" fill="#0D131A"/>
<path d="M23.5382 6.62616L24.4542 7.4236C24.5532 7.54764 24.5285 7.80459 24.3799 8.19445C24.2314 8.56659 24.1076 8.69063 24.0086 8.56659L23.4887 7.90206C23.1916 7.58308 22.9688 7.45904 22.8203 7.52992C22.6883 7.60081 22.6388 7.83118 22.6718 8.22103L22.8946 9.73616C22.9276 9.87792 22.7955 9.9488 22.4985 9.9488C22.2014 9.93108 22.0446 9.84248 22.0281 9.68299L21.7805 8.03496C21.7145 7.13121 21.8466 6.53756 22.1766 6.25403C22.4572 6.02366 22.9111 6.1477 23.5382 6.62616Z" fill="#0D131A"/>
<path d="M61.5141 14.122C65.0624 17.1877 66.9274 20.8914 67.1089 25.233C67.1254 25.4102 66.9109 25.5431 66.4653 25.6317C66.0197 25.738 65.7969 25.7026 65.7969 25.5253C65.6318 21.5559 63.9649 18.1269 60.7961 15.2385C56.9837 11.7652 51.6529 9.89565 44.8037 9.62984C38.9448 9.39947 34.7528 8.6995 32.2276 7.52993C30.1811 6.59073 28.704 5.00473 27.7963 2.77191C27.5983 2.29345 27.4332 2.0365 27.3012 2.00106C27.1527 1.9479 26.9134 2.12511 26.5833 2.53268C25.4775 3.84402 24.8256 5.44774 24.6275 7.34386C24.4295 9.29315 24.8091 10.8083 25.7663 11.8892C27.6973 14.0157 29.2239 16.5232 30.3462 19.4117C31.0394 21.2015 31.8811 24.1874 32.8713 28.3695C34.0761 33.4554 35.4047 37.2388 36.857 39.7197C38.0288 41.7221 39.7452 43.5296 42.0063 45.1422C42.1053 45.1954 42.0393 45.4523 41.8082 45.9131C41.5937 46.3561 41.4204 46.5333 41.2884 46.4447C38.3837 44.3891 36.2959 42.2094 35.0251 39.9057C33.8533 37.7792 32.7228 34.3237 31.6335 29.5391C30.4617 24.3469 29.587 20.9711 29.0094 19.4117C28.1181 16.9485 26.7731 14.7157 24.9741 12.7133C23.6868 11.2779 23.2742 9.16024 23.7363 6.36036C24.1819 3.71997 25.0814 1.83271 26.4347 0.698585C27.0454 0.184683 27.4745 -0.0456863 27.722 0.00747594C27.9696 0.0606382 28.2089 0.432774 28.44 1.12388C29.4302 3.88832 30.8496 5.71356 32.698 6.59959C34.7775 7.57423 38.821 8.1856 44.8285 8.43369C51.8922 8.6995 57.4541 10.5956 61.5141 14.122Z" fill="#0D131A"/>
<path d="M68.7428 15.4511C71.8951 18.3573 73.2567 21.5027 72.8275 24.8874C72.811 25.0469 72.5635 25.1178 72.0849 25.1001C71.6063 25.0823 71.3752 24.9937 71.3917 24.8342C71.7548 21.928 70.682 19.199 68.1734 16.6473C65.2852 13.7233 61.2665 12.0576 56.1172 11.65C55.9522 11.6323 55.4736 11.4196 54.6814 11.0121C53.8727 10.5868 53.5426 10.3741 53.6911 10.3741C60.0617 10.3741 65.0789 12.0664 68.7428 15.4511Z" fill="#0D131A"/>
<path d="M29.653 83.9507C30.5442 80.2116 31.7903 77.4117 33.3911 75.551L51.7354 81.2925C53.3363 87.8492 53.4931 94.0958 52.2057 100.032C51.4301 103.559 50.217 106.704 48.5666 109.469C47.6754 110.975 45.8599 111.967 43.1203 112.446C40.2321 112.96 37.4511 112.649 34.7775 111.515C32.83 110.7 31.3034 108.707 30.1976 105.535C29.1744 102.646 28.6215 99.1816 28.539 95.1413C28.4564 91.1896 28.8278 87.4594 29.653 83.9507Z" fill="#7CBEB3"/>
<path d="M33.5892 91.2604C33.6882 90.1795 34.9013 88.7175 37.2283 86.8746C39.5554 85.0316 41.0325 84.3671 41.6597 84.881C42.3033 85.3949 42.4271 88.1948 42.031 93.2806C41.6349 98.3665 41.0325 100.945 40.2238 101.016C39.7452 101.051 38.5074 99.6335 36.5104 96.7627C34.4969 93.8565 33.5232 92.0224 33.5892 91.2604Z" fill="#006359"/>
<path d="M29.1827 85.067C29.2652 92.6692 30.8578 99.0044 33.9606 104.073C36.9313 108.981 40.6447 111.684 45.1008 112.18C43.2853 112.676 41.3214 112.835 39.2089 112.658C34.9838 112.304 32.1369 110.425 30.668 107.023C29.1992 103.638 28.5142 98.9601 28.6133 92.9882L29.1827 85.067Z" fill="#68A198"/>
<path d="M32.3266 78.4749C30.1811 82.4267 29.2074 88.0884 29.4054 95.4603C29.62 103.133 31.1218 108.069 33.911 110.266C35.809 111.754 38.3506 112.348 41.5359 112.047C44.6056 111.746 46.6356 110.842 47.6259 109.336C49.8704 105.916 51.3393 101.787 52.0324 96.9488C52.6596 92.5895 52.5771 88.4429 51.7849 84.5089C51.3888 82.5419 51.3393 81.4875 51.6363 81.3457C51.9334 81.2039 52.3295 82.09 52.8246 84.0038C53.8479 87.991 54.0542 92.306 53.4435 96.9488C52.7834 101.999 51.2733 106.332 48.9132 109.947C47.6919 111.808 45.1668 112.897 41.3378 113.216C37.5914 113.518 34.7692 112.924 32.8713 111.436C31.5014 110.355 30.3709 108.441 29.4797 105.694C28.6215 103.071 28.1016 100.059 27.92 96.6564C27.4744 88.9302 28.6132 82.6836 31.3364 77.9167C32.2936 76.2333 32.9538 75.427 33.3169 75.4979C33.6965 75.551 33.3664 76.5434 32.3266 78.4749Z" fill="#0D131A"/>
<path d="M34.1833 90.9947C34.1503 91.6149 35.0003 93.3515 36.7332 96.2046C38.4991 99.1108 39.6297 100.528 40.1248 100.458C40.6694 100.369 41.115 97.9678 41.4616 93.2541C41.8082 88.5226 41.7257 85.962 41.214 85.5721C40.7354 85.2177 39.4481 85.8822 37.3521 87.5657C35.2726 89.2492 34.2163 90.3922 34.1833 90.9947ZM33.0445 90.7289C33.0941 89.4352 34.4721 87.8049 37.1788 85.8379C39.836 83.9241 41.4286 83.233 41.9567 83.7646C42.8314 84.6684 43.079 87.7429 42.6994 92.9882C42.3033 98.2336 41.6019 101.166 40.5951 101.787C39.902 102.23 38.4579 100.83 36.2628 97.5868C34.0678 94.3616 32.995 92.0756 33.0445 90.7289Z" fill="#0D131A"/>
<path d="M14.3785 109.522C14.296 109.256 14.6096 108.804 15.3192 108.166C16.0454 107.528 16.59 107.236 16.9531 107.289C17.6133 107.377 18.0671 108.148 18.3147 109.601C18.5458 110.948 18.5623 111.719 18.3642 111.914C18.1332 112.144 17.4895 112.003 16.4332 111.489C15.2945 110.939 14.6096 110.284 14.3785 109.522Z" fill="white"/>
<path d="M21.7558 111.515C20.6005 110.948 20.0229 110.381 20.0229 109.814C20.0229 109.318 20.3612 108.715 21.0379 108.007C21.698 107.298 22.2014 107.032 22.548 107.209C23.0926 107.493 23.5382 108.326 23.8848 109.708C24.2149 111.037 24.2314 111.808 23.9343 112.02C23.6208 112.251 22.8946 112.082 21.7558 111.515Z" fill="white"/>
<path d="M25.6425 109.894C25.527 108.972 25.8406 108.122 26.5833 107.342L27.7468 106.438C28.3574 106.722 28.8361 107.572 29.1826 108.99C29.4962 110.266 29.5705 111.01 29.4054 111.223L27.4497 111.17C26.2944 110.868 25.692 110.443 25.6425 109.894Z" fill="white"/>
<path d="M35.3716 112.127C35.3386 111.666 35.4872 111.17 35.8172 110.638C36.2133 110 36.7167 109.69 37.3274 109.708C37.938 109.725 38.4084 109.974 38.7384 110.452C39.0025 110.895 39.118 111.436 39.085 112.073C39.052 112.658 38.8622 113.314 38.5156 114.04C38.1856 114.767 37.9215 115.13 37.7235 115.13C37.5089 115.13 37.0798 114.749 36.4361 113.987C35.7595 113.19 35.4046 112.57 35.3716 112.127Z" fill="white"/>
<path d="M40.2981 112.711C40.2486 111.843 40.4714 111.125 40.9665 110.558C41.3626 110.08 41.7587 109.841 42.1548 109.841C42.4518 109.841 42.7984 110.08 43.1945 110.558C43.5906 111.055 43.8382 111.551 43.9372 112.047C44.0032 112.366 43.929 112.915 43.7144 113.695C43.4999 114.528 43.244 115.024 42.947 115.183C42.6499 115.361 42.1548 115.166 41.4616 114.599C40.7189 114.014 40.3311 113.385 40.2981 112.711Z" fill="white"/>
<path d="M45.175 112.552C44.7129 112.02 44.7542 111.214 45.2988 110.133C45.8435 109.052 46.3798 108.591 46.908 108.751C47.4031 108.928 47.8817 109.672 48.3438 110.984C48.7729 112.242 48.8802 113.048 48.6657 113.403C48.4676 113.722 47.956 113.792 47.1308 113.615C46.2891 113.42 45.6372 113.066 45.175 112.552Z" fill="white"/>
<path d="M53.5921 107.714C53.5261 107.342 53.8479 106.881 54.5576 106.332C55.2508 105.8 55.7541 105.605 56.0677 105.747C56.6123 106.013 56.9672 106.757 57.1322 107.98C57.2973 109.167 57.2312 109.832 56.9342 109.974C56.6371 110.115 56.0512 109.947 55.1765 109.469C54.2358 108.937 53.7076 108.352 53.5921 107.714Z" fill="white"/>
<path d="M60.301 109.522C59.2942 109.15 58.7083 108.724 58.5433 108.246C58.3948 107.838 58.6506 107.253 59.3107 106.491C59.9709 105.747 60.4495 105.446 60.7466 105.588C61.3242 105.853 61.7286 106.536 61.9596 107.634C62.1577 108.591 62.1742 109.247 62.0092 109.601L60.301 109.522Z" fill="white"/>
<path d="M62.9994 107.315C62.8013 106.89 63.0819 106.279 63.8411 105.481C64.5838 104.702 65.1202 104.383 65.4502 104.524C65.8298 104.702 66.2012 105.348 66.5643 106.465C66.9108 107.564 67.0016 108.237 66.8366 108.485L64.9551 108.432C63.8659 108.148 63.2139 107.776 62.9994 107.315Z" fill="white"/>
<path d="M91.0728 111.409C90.8417 111.161 91.0232 110.523 91.6174 109.495C92.2115 108.45 92.7149 107.936 93.1275 107.953C93.6721 107.989 94.2828 108.627 94.9594 109.867C95.6031 111.037 95.8507 111.728 95.7021 111.941C95.5206 112.189 94.8192 112.268 93.5979 112.18C92.3271 112.091 91.4854 111.834 91.0728 111.409Z" fill="white"/>
<path d="M96.4696 109.947C96.2385 109.681 96.387 109.017 96.9152 107.953C97.4268 106.89 97.8724 106.376 98.252 106.412C98.6151 106.447 99.1267 107.067 99.7869 108.272C100.414 109.46 100.67 110.186 100.554 110.452C100.406 110.718 99.8034 110.815 98.7471 110.744C97.6248 110.674 96.8657 110.408 96.4696 109.947Z" fill="white"/>
<path d="M100.604 107.502C100.34 107.147 100.422 106.474 100.851 105.481C101.264 104.524 101.594 104.064 101.842 104.099C102.271 104.152 102.799 104.737 103.426 105.853C104.037 106.952 104.268 107.643 104.119 107.927C104.004 108.228 103.484 108.343 102.56 108.272C101.586 108.201 100.934 107.945 100.604 107.502Z" fill="white"/>
<path d="M15.443 108.007L16.5323 109.469C17.2585 110.55 17.6628 111.391 17.7453 111.994L16.0124 111.037C14.8736 110.346 14.3372 109.85 14.4033 109.548C14.4693 109.247 14.6673 108.901 14.9974 108.512L15.443 108.007Z" fill="#DBDCDC"/>
<path d="M21.0131 108.113L21.9539 109.362C22.614 110.355 23.0514 111.249 23.2659 112.047C21.2359 111.285 20.1962 110.532 20.1467 109.788C20.1137 109.327 20.2457 108.91 20.5428 108.538L21.0131 108.113Z" fill="#DBDCDC"/>
<path d="M28.7865 111.409C27.7303 111.161 26.9711 110.913 26.509 110.665C25.9809 110.399 25.6838 110.071 25.6178 109.681C25.5518 109.344 25.6178 108.955 25.8158 108.512L26.1377 107.953C26.5833 108.184 27.1279 108.751 27.7716 109.655C28.3162 110.434 28.6545 111.019 28.7865 111.409Z" fill="#DBDCDC"/>
<path d="M36.3619 110.266L36.6095 111.887C36.824 113.11 37.0881 114.067 37.4017 114.758L36.4609 113.881C35.8503 113.154 35.5614 112.41 35.5945 111.648C35.6275 111.117 35.7512 110.727 35.9658 110.479C36.1308 110.284 36.2629 110.213 36.3619 110.266Z" fill="#DBDCDC"/>
<path d="M40.8179 111.117L41.7587 112.765L42.9965 115.21C42.5344 115.051 42.0723 114.82 41.6101 114.519C40.6859 113.916 40.2568 113.27 40.3228 112.579C40.3888 111.905 40.4879 111.462 40.6199 111.249L40.8179 111.117Z" fill="#DBDCDC"/>
<path d="M45.2988 110.16L46.4623 111.356C47.2875 112.26 47.7909 113.013 47.9725 113.615L46.4376 113.084C45.4143 112.658 44.9192 112.242 44.9522 111.834L45.1503 110.638L45.2988 110.16Z" fill="#DBDCDC"/>
<path d="M54.4091 106.518C54.5576 106.624 54.8712 107.023 55.3498 107.714C55.9439 108.582 56.274 109.282 56.34 109.814L54.5576 108.91C54.0955 108.609 53.8562 108.228 53.8397 107.767C53.8232 107.431 53.9139 107.121 54.112 106.837L54.4091 106.518Z" fill="#DBDCDC"/>
<path d="M59.0384 106.677L59.8554 107.289C60.4825 107.909 61.0271 108.724 61.4893 109.734L60.1524 109.336C59.2447 108.981 58.7413 108.574 58.6423 108.113C58.5433 107.652 58.5763 107.28 58.7413 106.996L59.0384 106.677Z" fill="#DBDCDC"/>
<path d="M63.6926 105.614L64.7076 106.412C65.4338 107.103 65.9289 107.82 66.1929 108.565L64.7818 108.352C63.7916 108.086 63.2057 107.688 63.0242 107.156C62.9251 106.908 62.9664 106.598 63.1479 106.226C63.313 105.871 63.4945 105.667 63.6926 105.614Z" fill="#DBDCDC"/>
<path d="M91.7164 109.362C93.1028 110.071 94.2168 110.957 95.0585 112.02L93.2018 112.047C91.964 111.976 91.3203 111.71 91.2708 111.249C91.2213 110.789 91.2791 110.337 91.4441 109.894L91.7164 109.362Z" fill="#DBDCDC"/>
<path d="M96.8904 108.219C97.171 108.308 97.6413 108.574 98.3015 109.017C99.1927 109.601 99.7456 110.16 99.9601 110.691L98.2272 110.612C97.0554 110.47 96.4613 110.195 96.4448 109.788C96.4118 109.398 96.4778 109.017 96.6428 108.645L96.8904 108.219Z" fill="#DBDCDC"/>
<path d="M100.802 105.614L101.891 106.332C102.7 106.934 103.261 107.572 103.575 108.246L102.287 108.139C101.396 107.998 100.843 107.758 100.629 107.422C100.414 107.085 100.381 106.678 100.53 106.199L100.802 105.614Z" fill="#DBDCDC"/>
<path d="M90.6024 111.568C90.4704 111.055 90.7344 110.23 91.3946 109.096C92.0548 107.945 92.6241 107.36 93.1028 107.342C93.5814 107.324 94.2498 107.998 95.108 109.362C95.9497 110.691 96.3128 111.595 96.1973 112.073C96.0982 112.499 95.174 112.632 93.4246 112.472C91.6752 112.313 90.7344 112.011 90.6024 111.568ZM92.2115 109.495C91.7989 110.204 91.6339 110.718 91.7164 111.037C91.8815 111.285 92.4674 111.489 93.4741 111.648C94.4478 111.808 94.976 111.799 95.0585 111.622C95.141 111.427 94.9182 110.86 94.3901 109.92C93.8289 108.963 93.3916 108.476 93.078 108.458C92.8965 108.441 92.6076 108.786 92.2115 109.495Z" fill="#0D131A"/>
<path d="M100.034 110.239C100.133 110.08 99.9189 109.513 99.3908 108.538C98.8791 107.564 98.4913 107.05 98.2272 106.997C98.0292 106.979 97.7486 107.351 97.3855 108.113C97.0059 108.875 96.8491 109.407 96.9151 109.708C96.9647 109.974 97.4845 110.169 98.4748 110.293L100.034 110.239ZM98.351 105.8C98.8791 105.871 99.5063 106.66 100.232 108.166C100.926 109.601 101.198 110.487 101.049 110.824C100.901 111.179 100.117 111.285 98.6976 111.143C97.2452 110.984 96.3705 110.682 96.0734 110.239C95.8094 109.85 95.9827 109.008 96.5933 107.714C97.204 106.367 97.7899 105.729 98.351 105.8Z" fill="#0D131A"/>
<path d="M101.173 105.774C100.926 106.376 100.876 106.872 101.025 107.262C101.091 107.475 101.528 107.643 102.337 107.767L103.649 107.688C103.748 107.51 103.575 106.997 103.129 106.146C102.683 105.242 102.296 104.799 101.965 104.817C101.685 104.852 101.421 105.171 101.173 105.774ZM100.629 105.109C101.14 104.099 101.578 103.594 101.941 103.594C102.551 103.594 103.195 104.33 103.872 105.8C104.532 107.218 104.763 108.104 104.565 108.458L102.362 108.538C101.008 108.361 100.274 108.113 100.158 107.794C99.9107 107.103 100.067 106.208 100.629 105.109Z" fill="#0D131A"/>
<path d="M42.947 110.93C42.6664 110.576 42.3941 110.417 42.13 110.452C41.7504 110.47 41.4121 110.727 41.115 111.223C40.818 111.701 40.6942 112.162 40.7437 112.605C40.7932 113.013 41.115 113.473 41.7092 113.987C42.2868 114.466 42.6747 114.661 42.8727 114.572C43.0047 114.519 43.145 114.262 43.2936 113.801C43.4916 113.27 43.5576 112.773 43.4916 112.313C43.4421 111.763 43.2606 111.303 42.947 110.93ZM40.3724 110.585C40.9335 109.699 41.5441 109.282 42.2043 109.336C42.6829 109.371 43.112 109.637 43.4916 110.133C43.8712 110.629 44.1105 111.241 44.2095 111.967C44.3251 112.676 44.2756 113.447 44.061 114.28C43.8465 115.095 43.5824 115.564 43.2688 115.689C42.8727 115.848 42.2373 115.618 41.3626 114.997C40.4219 114.306 39.8855 113.553 39.7535 112.738C39.6544 112.118 39.8607 111.4 40.3724 110.585Z" fill="#0D131A"/>
<path d="M38.2186 110.877C38.004 110.558 37.7647 110.381 37.5007 110.346C37.1871 110.31 36.857 110.452 36.5104 110.771C36.1473 111.09 35.9658 111.436 35.9658 111.808C35.9823 112.268 36.2216 112.818 36.6837 113.456C37.0963 114.058 37.4016 114.359 37.5997 114.359C37.7812 114.342 37.9793 114.085 38.1938 113.589C38.4249 113.092 38.5487 112.596 38.5652 112.1C38.5817 111.639 38.4662 111.232 38.2186 110.877ZM35.6687 110C36.2794 109.415 36.9148 109.167 37.5749 109.256C38.1196 109.327 38.5899 109.646 38.986 110.213C39.3656 110.78 39.5389 111.409 39.5059 112.1C39.4894 112.667 39.2831 113.394 38.887 114.28C38.4579 115.201 38.0866 115.68 37.773 115.715C37.4099 115.768 36.8405 115.316 36.0648 114.359C35.2396 113.367 34.8105 112.525 34.7775 111.834C34.7445 111.179 35.0416 110.567 35.6687 110Z" fill="#0D131A"/>
<path d="M47.7497 110.346C47.3701 109.779 47.0235 109.495 46.7099 109.495C46.3964 109.46 46.0828 109.708 45.7692 110.239C45.4391 110.789 45.3153 111.303 45.3979 111.781C45.4804 112.206 45.9425 112.579 46.7842 112.898C47.5929 113.181 48.0633 113.261 48.1953 113.137C48.3108 113.03 48.3356 112.658 48.2696 112.02C48.2035 111.329 48.0303 110.771 47.7497 110.346ZM46.8832 108.326C47.6919 108.45 48.3273 109.362 48.7894 111.063C49.2185 112.658 49.3011 113.615 49.037 113.934L46.7099 113.775C45.3236 113.367 44.5727 112.835 44.4571 112.18C44.3251 111.453 44.5149 110.62 45.0265 109.681C45.5877 108.671 46.2066 108.219 46.8832 108.326Z" fill="#0D131A"/>
<path d="M29.6282 108.777C30.0408 110.479 30.0821 111.436 29.752 111.648C29.3229 111.914 28.4812 111.861 27.2269 111.489C25.9231 111.099 25.1969 110.629 25.0484 110.08C24.8503 109.424 25.0814 108.582 25.7415 107.555C26.4182 106.491 27.0949 105.986 27.7715 106.04C28.5637 106.093 29.1826 107.005 29.6282 108.777ZM26.0881 109.655C26.1376 110.027 26.5915 110.363 27.4497 110.665C28.2749 110.948 28.7783 111.001 28.9598 110.824C29.0918 110.7 29.0176 110.106 28.737 109.043C28.4399 107.909 28.0933 107.307 27.6972 107.236C27.3672 107.183 27.0041 107.422 26.608 107.953C26.1624 108.52 25.9891 109.088 26.0881 109.655Z" fill="#0D131A"/>
<path d="M20.617 109.814C20.617 110.222 21.0709 110.647 21.9786 111.09C22.8698 111.515 23.3815 111.63 23.5135 111.436C23.662 111.241 23.6208 110.665 23.3897 109.708C23.1421 108.68 22.8203 108.122 22.4242 108.033C22.0446 107.945 21.6485 108.131 21.2359 108.591C20.8563 109.017 20.65 109.407 20.617 109.761V109.814ZM20.5923 107.714C21.3019 107.005 21.9291 106.704 22.4737 106.81C23.2989 106.97 23.8931 107.9 24.2562 109.601C24.6028 111.214 24.611 112.171 24.2809 112.472C23.9674 112.791 23.0926 112.614 21.6568 111.941C20.1549 111.267 19.437 110.505 19.503 109.655C19.5525 109.052 19.9156 108.405 20.5923 107.714Z" fill="#0D131A"/>
<path d="M63.4945 106.943C63.544 107.298 64.0226 107.634 64.9303 107.953C65.8051 108.255 66.3002 108.326 66.4157 108.166C66.5312 108.007 66.457 107.457 66.1929 106.518C65.9123 105.526 65.607 105.012 65.2769 104.976C64.9964 104.941 64.6168 105.171 64.1381 105.667C63.6595 106.181 63.445 106.607 63.4945 106.943ZM63.5192 105.162C64.3775 104.276 65.0541 103.922 65.5492 104.099C66.1764 104.347 66.688 105.189 67.0841 106.624C67.4637 107.989 67.5297 108.795 67.2822 109.043C67.0346 109.274 66.2259 109.194 64.8561 108.804C63.4532 108.396 62.6693 107.945 62.5042 107.448C62.3062 106.828 62.6445 106.066 63.5192 105.162Z" fill="#0D131A"/>
<path d="M60.3505 109.07C61.0767 109.336 61.4975 109.407 61.613 109.282C61.7286 109.158 61.7038 108.653 61.5388 107.767C61.3572 106.828 61.1014 106.314 60.7713 106.226C60.4413 106.137 60.0534 106.332 59.6078 106.81C59.1622 107.307 58.9806 107.741 59.0632 108.113C59.1622 108.485 59.5913 108.804 60.3505 109.07ZM60.9694 105.242C61.514 105.384 61.9679 106.155 62.331 107.555C62.661 108.919 62.6941 109.814 62.43 110.239C62.2649 110.505 61.5305 110.39 60.2267 109.894C58.8734 109.38 58.1472 108.839 58.0482 108.272C57.9326 107.705 58.2462 107.023 58.9889 106.226C59.7481 105.41 60.4082 105.083 60.9694 105.242Z" fill="#0D131A"/>
<path d="M55.3498 109.017C56.076 109.442 56.5133 109.601 56.6619 109.495C56.7939 109.407 56.8104 108.893 56.7114 107.953C56.5958 106.961 56.3648 106.403 56.0182 106.279C55.6881 106.155 55.292 106.279 54.8299 106.651C54.3843 107.005 54.1697 107.36 54.1862 107.714C54.2028 108.139 54.5906 108.574 55.3498 109.017ZM56.2905 105.295C56.9837 105.455 57.3963 106.332 57.5283 107.927C57.6438 109.433 57.5613 110.293 57.2808 110.505C56.9672 110.718 56.1915 110.47 54.9537 109.761C53.6994 109.017 53.0475 108.37 52.998 107.821C52.9484 107.307 53.3033 106.722 54.0625 106.066C54.8712 105.393 55.6138 105.136 56.2905 105.295Z" fill="#0D131A"/>
<path d="M16.3342 110.691C17.2089 111.17 17.7123 111.32 17.8443 111.143C17.9929 110.966 17.9681 110.408 17.7701 109.469C17.5555 108.494 17.2997 107.962 17.0026 107.874C16.656 107.75 16.2352 107.891 15.7401 108.299C15.2449 108.707 14.9974 109.105 14.9974 109.495C15.0139 109.796 15.4595 110.195 16.3342 110.691ZM17.2254 106.678C17.9351 106.837 18.4385 107.767 18.7355 109.469C19.0161 111.099 19.0079 112.011 18.7108 112.206C18.1992 112.579 17.2749 112.384 15.9381 111.622C14.6178 110.877 13.9329 110.213 13.8834 109.628C13.8173 108.955 14.2052 108.255 15.0469 107.528C15.8721 106.819 16.5983 106.536 17.2254 106.678Z" fill="#0D131A"/>
</svg>
